<mxfile host="app.diagrams.net" agent="Mozilla/5.0 (Windows NT 10.0; Win64; x64) AppleWebKit/537.36 (KHTML, like Gecko) Chrome/129.0.0.0 Safari/537.36" version="24.7.17">
  <diagram name="Page-1" id="13e1069c-82ec-6db2-03f1-153e76fe0fe0">
    <mxGraphModel dx="652" dy="376" grid="1" gridSize="10" guides="1" tooltips="1" connect="1" arrows="1" fold="1" page="1" pageScale="1" pageWidth="1100" pageHeight="850" background="none" math="0" shadow="0">
      <root>
        <mxCell id="0" />
        <mxCell id="1" parent="0" />
        <mxCell id="PfA9UrWwTEVDZZUZMj6F-175" value="BaseRouter" style="shape=umlLifeline;perimeter=lifelinePerimeter;whiteSpace=wrap;html=1;container=1;collapsible=0;recursiveResize=0;outlineConnect=0;rounded=0;shadow=0;comic=0;labelBackgroundColor=none;strokeWidth=1;fontFamily=Verdana;fontSize=12;align=center;" parent="1" vertex="1">
          <mxGeometry x="654" y="91" width="100" height="728" as="geometry" />
        </mxCell>
        <mxCell id="PfA9UrWwTEVDZZUZMj6F-176" value="" style="html=1;points=[[0,0,0,0,5],[0,1,0,0,-5],[1,0,0,0,5],[1,1,0,0,-5]];perimeter=orthogonalPerimeter;outlineConnect=0;targetShapes=umlLifeline;portConstraint=eastwest;newEdgeStyle={&quot;curved&quot;:0,&quot;rounded&quot;:0};" parent="PfA9UrWwTEVDZZUZMj6F-175" vertex="1">
          <mxGeometry x="45" y="174" width="10" height="42" as="geometry" />
        </mxCell>
        <mxCell id="PfA9UrWwTEVDZZUZMj6F-177" value="API" style="shape=umlLifeline;perimeter=lifelinePerimeter;whiteSpace=wrap;html=1;container=1;collapsible=0;recursiveResize=0;outlineConnect=0;rounded=0;shadow=0;comic=0;labelBackgroundColor=none;strokeWidth=1;fontFamily=Verdana;fontSize=12;align=center;" parent="1" vertex="1">
          <mxGeometry x="1037" y="89" width="100" height="730" as="geometry" />
        </mxCell>
        <mxCell id="PfA9UrWwTEVDZZUZMj6F-178" value="App" style="shape=umlLifeline;perimeter=lifelinePerimeter;whiteSpace=wrap;html=1;container=1;collapsible=0;recursiveResize=0;outlineConnect=0;rounded=0;shadow=0;comic=0;labelBackgroundColor=none;strokeWidth=1;fontFamily=Verdana;fontSize=12;align=center;" parent="1" vertex="1">
          <mxGeometry x="356" y="91" width="100" height="728" as="geometry" />
        </mxCell>
        <mxCell id="PfA9UrWwTEVDZZUZMj6F-179" value="" style="html=1;points=[[0,0,0,0,5],[0,1,0,0,-5],[1,0,0,0,5],[1,1,0,0,-5]];perimeter=orthogonalPerimeter;outlineConnect=0;targetShapes=umlLifeline;portConstraint=eastwest;newEdgeStyle={&quot;curved&quot;:0,&quot;rounded&quot;:0};" parent="PfA9UrWwTEVDZZUZMj6F-178" vertex="1">
          <mxGeometry x="45" y="174" width="10" height="42" as="geometry" />
        </mxCell>
        <mxCell id="PfA9UrWwTEVDZZUZMj6F-180" value="sd Registrar Dispositivo" style="shape=umlFrame;whiteSpace=wrap;html=1;pointerEvents=0;width=190;height=28;" parent="1" vertex="1">
          <mxGeometry x="30" y="11" width="1330" height="828" as="geometry" />
        </mxCell>
        <mxCell id="PfA9UrWwTEVDZZUZMj6F-181" value="" style="shape=umlLifeline;perimeter=lifelinePerimeter;whiteSpace=wrap;html=1;container=1;dropTarget=0;collapsible=0;recursiveResize=0;outlineConnect=0;portConstraint=eastwest;newEdgeStyle={&quot;curved&quot;:0,&quot;rounded&quot;:0};participant=umlActor;size=60;" parent="1" vertex="1">
          <mxGeometry x="106.5" y="97" width="30" height="722" as="geometry" />
        </mxCell>
        <mxCell id="PfA9UrWwTEVDZZUZMj6F-182" value="" style="html=1;points=[[0,0,0,0,5],[0,1,0,0,-5],[1,0,0,0,5],[1,1,0,0,-5]];perimeter=orthogonalPerimeter;outlineConnect=0;targetShapes=umlLifeline;portConstraint=eastwest;newEdgeStyle={&quot;curved&quot;:0,&quot;rounded&quot;:0};" parent="PfA9UrWwTEVDZZUZMj6F-181" vertex="1">
          <mxGeometry x="10" y="88" width="10" height="52" as="geometry" />
        </mxCell>
        <mxCell id="PfA9UrWwTEVDZZUZMj6F-183" value="" style="html=1;points=[[0,0,0,0,5],[0,1,0,0,-5],[1,0,0,0,5],[1,1,0,0,-5]];perimeter=orthogonalPerimeter;outlineConnect=0;targetShapes=umlLifeline;portConstraint=eastwest;newEdgeStyle={&quot;curved&quot;:0,&quot;rounded&quot;:0};" parent="PfA9UrWwTEVDZZUZMj6F-181" vertex="1">
          <mxGeometry x="10" y="178" width="10" height="28" as="geometry" />
        </mxCell>
        <mxCell id="PfA9UrWwTEVDZZUZMj6F-184" value="" style="html=1;points=[[0,0,0,0,5],[0,1,0,0,-5],[1,0,0,0,5],[1,1,0,0,-5]];perimeter=orthogonalPerimeter;outlineConnect=0;targetShapes=umlLifeline;portConstraint=eastwest;newEdgeStyle={&quot;curved&quot;:0,&quot;rounded&quot;:0};" parent="PfA9UrWwTEVDZZUZMj6F-181" vertex="1">
          <mxGeometry x="10.5" y="238" width="10" height="32" as="geometry" />
        </mxCell>
        <mxCell id="PfA9UrWwTEVDZZUZMj6F-185" value="" style="html=1;points=[[0,0,0,0,5],[0,1,0,0,-5],[1,0,0,0,5],[1,1,0,0,-5]];perimeter=orthogonalPerimeter;outlineConnect=0;targetShapes=umlLifeline;portConstraint=eastwest;newEdgeStyle={&quot;curved&quot;:0,&quot;rounded&quot;:0};" parent="PfA9UrWwTEVDZZUZMj6F-181" vertex="1">
          <mxGeometry x="10.5" y="302" width="10" height="18" as="geometry" />
        </mxCell>
        <mxCell id="PfA9UrWwTEVDZZUZMj6F-186" value="Usuario" style="text;html=1;align=center;verticalAlign=middle;resizable=0;points=[];autosize=1;strokeColor=none;fillColor=none;" parent="1" vertex="1">
          <mxGeometry x="91.5" y="61" width="60" height="30" as="geometry" />
        </mxCell>
        <mxCell id="PfA9UrWwTEVDZZUZMj6F-187" value="Dispositivos" style="shape=umlLifeline;perimeter=lifelinePerimeter;whiteSpace=wrap;html=1;container=1;collapsible=0;recursiveResize=0;outlineConnect=0;rounded=0;shadow=0;comic=0;labelBackgroundColor=none;strokeWidth=1;fontFamily=Verdana;fontSize=12;align=center;" parent="1" vertex="1">
          <mxGeometry x="835" y="91" width="100" height="728" as="geometry" />
        </mxCell>
        <mxCell id="PfA9UrWwTEVDZZUZMj6F-188" value="" style="html=1;points=[[0,0,0,0,5],[0,1,0,0,-5],[1,0,0,0,5],[1,1,0,0,-5]];perimeter=orthogonalPerimeter;outlineConnect=0;targetShapes=umlLifeline;portConstraint=eastwest;newEdgeStyle={&quot;curved&quot;:0,&quot;rounded&quot;:0};" parent="PfA9UrWwTEVDZZUZMj6F-187" vertex="1">
          <mxGeometry x="45" y="306.25" width="10" height="23.75" as="geometry" />
        </mxCell>
        <mxCell id="PfA9UrWwTEVDZZUZMj6F-189" value="" style="html=1;points=[[0,0,0,0,5],[0,1,0,0,-5],[1,0,0,0,5],[1,1,0,0,-5]];perimeter=orthogonalPerimeter;outlineConnect=0;targetShapes=umlLifeline;portConstraint=eastwest;newEdgeStyle={&quot;curved&quot;:0,&quot;rounded&quot;:0};" parent="PfA9UrWwTEVDZZUZMj6F-187" vertex="1">
          <mxGeometry x="45" y="174" width="10" height="46" as="geometry" />
        </mxCell>
        <mxCell id="PfA9UrWwTEVDZZUZMj6F-190" value="" style="group;rotation=90;" parent="1" vertex="1" connectable="0">
          <mxGeometry x="170" y="189" width="75" as="geometry" />
        </mxCell>
        <mxCell id="PfA9UrWwTEVDZZUZMj6F-191" value="&lt;font style=&quot;font-size: 10px;&quot;&gt;Encender y conectar dispositivo a usb y wifi&lt;/font&gt;" style="html=1;verticalAlign=bottom;startArrow=none;startFill=0;endArrow=oval;curved=0;rounded=0;endFill=1;targetPerimeterSpacing=2;endSize=14;" parent="PfA9UrWwTEVDZZUZMj6F-190" edge="1">
          <mxGeometry x="0.6" y="10" width="80" relative="1" as="geometry">
            <mxPoint as="sourcePoint" />
            <mxPoint x="75" as="targetPoint" />
            <mxPoint as="offset" />
            <Array as="points">
              <mxPoint x="35" />
            </Array>
          </mxGeometry>
        </mxCell>
        <mxCell id="PfA9UrWwTEVDZZUZMj6F-192" value="" style="endArrow=open;endFill=1;endSize=12;html=1;rounded=0;" parent="PfA9UrWwTEVDZZUZMj6F-190" edge="1" source="PfA9UrWwTEVDZZUZMj6F-182">
          <mxGeometry width="160" relative="1" as="geometry">
            <mxPoint x="-20" as="sourcePoint" />
            <mxPoint x="70" as="targetPoint" />
          </mxGeometry>
        </mxCell>
        <mxCell id="PfA9UrWwTEVDZZUZMj6F-193" value="&lt;font style=&quot;font-size: 10px;&quot;&gt;Recibe identificador del display del dispositivo&lt;/font&gt;" style="html=1;verticalAlign=bottom;startArrow=circle;startFill=1;endArrow=open;startSize=6;endSize=8;curved=0;rounded=0;dashed=1;dashPattern=12 12;" parent="1" target="PfA9UrWwTEVDZZUZMj6F-182" edge="1">
          <mxGeometry x="-0.6761" y="-8" width="80" relative="1" as="geometry">
            <mxPoint x="250" y="227.71000000000004" as="sourcePoint" />
            <mxPoint x="151.5" y="227.71000000000004" as="targetPoint" />
            <mxPoint as="offset" />
          </mxGeometry>
        </mxCell>
        <mxCell id="PfA9UrWwTEVDZZUZMj6F-194" style="edgeStyle=orthogonalEdgeStyle;rounded=0;orthogonalLoop=1;jettySize=auto;html=1;curved=0;" parent="1" source="PfA9UrWwTEVDZZUZMj6F-183" target="PfA9UrWwTEVDZZUZMj6F-179" edge="1">
          <mxGeometry relative="1" as="geometry">
            <Array as="points">
              <mxPoint x="320" y="275" />
              <mxPoint x="320" y="275" />
            </Array>
          </mxGeometry>
        </mxCell>
        <mxCell id="PfA9UrWwTEVDZZUZMj6F-195" value="&lt;font style=&quot;font-size: 10px;&quot;&gt;Cambiar de pagina a administracion de dispositivos&lt;/font&gt;" style="edgeLabel;html=1;align=center;verticalAlign=middle;resizable=0;points=[];" parent="PfA9UrWwTEVDZZUZMj6F-194" vertex="1" connectable="0">
          <mxGeometry x="-0.316" y="2" relative="1" as="geometry">
            <mxPoint x="27" y="-8" as="offset" />
          </mxGeometry>
        </mxCell>
        <mxCell id="PfA9UrWwTEVDZZUZMj6F-196" style="edgeStyle=orthogonalEdgeStyle;rounded=0;orthogonalLoop=1;jettySize=auto;html=1;curved=0;" parent="1" source="PfA9UrWwTEVDZZUZMj6F-179" target="PfA9UrWwTEVDZZUZMj6F-176" edge="1">
          <mxGeometry relative="1" as="geometry">
            <Array as="points">
              <mxPoint x="516" y="275" />
              <mxPoint x="516" y="275" />
            </Array>
          </mxGeometry>
        </mxCell>
        <mxCell id="PfA9UrWwTEVDZZUZMj6F-197" value="&lt;font style=&quot;font-size: 9px;&quot;&gt;Enviar peticion de cambio de pagina&lt;/font&gt;" style="edgeLabel;html=1;align=center;verticalAlign=middle;resizable=0;points=[];" parent="PfA9UrWwTEVDZZUZMj6F-196" vertex="1" connectable="0">
          <mxGeometry x="0.1104" relative="1" as="geometry">
            <mxPoint x="-3" y="-22" as="offset" />
          </mxGeometry>
        </mxCell>
        <mxCell id="PfA9UrWwTEVDZZUZMj6F-198" style="edgeStyle=orthogonalEdgeStyle;rounded=0;orthogonalLoop=1;jettySize=auto;html=1;curved=0;dashed=1;dashPattern=12 12;endArrow=open;endFill=0;" parent="1" source="PfA9UrWwTEVDZZUZMj6F-176" target="PfA9UrWwTEVDZZUZMj6F-179" edge="1">
          <mxGeometry relative="1" as="geometry">
            <Array as="points">
              <mxPoint x="526" y="295" />
              <mxPoint x="526" y="295" />
            </Array>
          </mxGeometry>
        </mxCell>
        <mxCell id="PfA9UrWwTEVDZZUZMj6F-199" value="&lt;font style=&quot;font-size: 9px;&quot;&gt;Reedirecciona a administracion de dispositivos&lt;/font&gt;" style="edgeLabel;html=1;align=center;verticalAlign=middle;resizable=0;points=[];" parent="PfA9UrWwTEVDZZUZMj6F-198" vertex="1" connectable="0">
          <mxGeometry x="0.2143" y="1" relative="1" as="geometry">
            <mxPoint x="20" y="-10" as="offset" />
          </mxGeometry>
        </mxCell>
        <mxCell id="PfA9UrWwTEVDZZUZMj6F-200" style="edgeStyle=orthogonalEdgeStyle;rounded=0;orthogonalLoop=1;jettySize=auto;html=1;curved=0;dashed=1;dashPattern=12 12;endArrow=open;endFill=0;" parent="1" source="PfA9UrWwTEVDZZUZMj6F-179" target="PfA9UrWwTEVDZZUZMj6F-183" edge="1">
          <mxGeometry relative="1" as="geometry">
            <Array as="points">
              <mxPoint x="280" y="295" />
              <mxPoint x="280" y="295" />
            </Array>
            <mxPoint x="335" y="294.9999999999998" as="sourcePoint" />
            <mxPoint x="126.5" y="294.9999999999998" as="targetPoint" />
          </mxGeometry>
        </mxCell>
        <mxCell id="PfA9UrWwTEVDZZUZMj6F-201" value="&lt;font style=&quot;font-size: 10px;&quot;&gt;Muestra pagina de administracion de dispositivos&lt;/font&gt;" style="edgeLabel;html=1;align=center;verticalAlign=middle;resizable=0;points=[];" parent="PfA9UrWwTEVDZZUZMj6F-200" vertex="1" connectable="0">
          <mxGeometry x="0.4237" y="1" relative="1" as="geometry">
            <mxPoint x="38" y="-10" as="offset" />
          </mxGeometry>
        </mxCell>
        <mxCell id="PfA9UrWwTEVDZZUZMj6F-202" value="Usuario ya inicio sesion" style="shape=note;whiteSpace=wrap;html=1;backgroundOutline=1;darkOpacity=0.05;size=20;" parent="1" vertex="1">
          <mxGeometry x="170" y="51" width="80" height="92" as="geometry" />
        </mxCell>
        <mxCell id="PfA9UrWwTEVDZZUZMj6F-203" style="edgeStyle=orthogonalEdgeStyle;rounded=0;orthogonalLoop=1;jettySize=auto;html=1;curved=0;dashed=1;dashPattern=12 12;endArrow=open;endFill=0;" parent="1" source="PfA9UrWwTEVDZZUZMj6F-205" target="PfA9UrWwTEVDZZUZMj6F-184" edge="1">
          <mxGeometry relative="1" as="geometry">
            <Array as="points">
              <mxPoint x="230" y="365" />
              <mxPoint x="230" y="365" />
            </Array>
          </mxGeometry>
        </mxCell>
        <mxCell id="PfA9UrWwTEVDZZUZMj6F-204" value="Pide rellenar formulario de registro dispositivo" style="edgeLabel;html=1;align=center;verticalAlign=middle;resizable=0;points=[];" parent="PfA9UrWwTEVDZZUZMj6F-203" vertex="1" connectable="0">
          <mxGeometry x="-0.373" y="-2" relative="1" as="geometry">
            <mxPoint x="-40" y="-9" as="offset" />
          </mxGeometry>
        </mxCell>
        <mxCell id="PfA9UrWwTEVDZZUZMj6F-205" value="" style="html=1;points=[[0,0,0,0,5],[0,1,0,0,-5],[1,0,0,0,5],[1,1,0,0,-5]];perimeter=orthogonalPerimeter;outlineConnect=0;targetShapes=umlLifeline;portConstraint=eastwest;newEdgeStyle={&quot;curved&quot;:0,&quot;rounded&quot;:0};" parent="1" vertex="1">
          <mxGeometry x="401" y="329" width="10" height="40" as="geometry" />
        </mxCell>
        <mxCell id="PfA9UrWwTEVDZZUZMj6F-206" style="edgeStyle=orthogonalEdgeStyle;rounded=0;orthogonalLoop=1;jettySize=auto;html=1;curved=0;" parent="1" source="PfA9UrWwTEVDZZUZMj6F-184" target="PfA9UrWwTEVDZZUZMj6F-205" edge="1">
          <mxGeometry relative="1" as="geometry">
            <Array as="points">
              <mxPoint x="280" y="339" />
              <mxPoint x="280" y="339" />
            </Array>
          </mxGeometry>
        </mxCell>
        <mxCell id="PfA9UrWwTEVDZZUZMj6F-207" value="Selecciona registrar dispositivo" style="edgeLabel;html=1;align=center;verticalAlign=middle;resizable=0;points=[];" parent="PfA9UrWwTEVDZZUZMj6F-206" vertex="1" connectable="0">
          <mxGeometry x="-0.1129" y="-3" relative="1" as="geometry">
            <mxPoint x="-10" y="-13" as="offset" />
          </mxGeometry>
        </mxCell>
        <mxCell id="PfA9UrWwTEVDZZUZMj6F-208" style="edgeStyle=orthogonalEdgeStyle;rounded=0;orthogonalLoop=1;jettySize=auto;html=1;curved=0;" parent="1" source="PfA9UrWwTEVDZZUZMj6F-210" target="PfA9UrWwTEVDZZUZMj6F-188" edge="1">
          <mxGeometry relative="1" as="geometry">
            <Array as="points">
              <mxPoint x="556" y="399" />
              <mxPoint x="556" y="399" />
            </Array>
          </mxGeometry>
        </mxCell>
        <mxCell id="PfA9UrWwTEVDZZUZMj6F-209" value="Envia datos rellenados del formulario" style="edgeLabel;html=1;align=center;verticalAlign=middle;resizable=0;points=[];" parent="PfA9UrWwTEVDZZUZMj6F-208" vertex="1" connectable="0">
          <mxGeometry x="-0.4789" relative="1" as="geometry">
            <mxPoint x="50" y="-10" as="offset" />
          </mxGeometry>
        </mxCell>
        <mxCell id="PfA9UrWwTEVDZZUZMj6F-210" value="" style="html=1;points=[[0,0,0,0,5],[0,1,0,0,-5],[1,0,0,0,5],[1,1,0,0,-5]];perimeter=orthogonalPerimeter;outlineConnect=0;targetShapes=umlLifeline;portConstraint=eastwest;newEdgeStyle={&quot;curved&quot;:0,&quot;rounded&quot;:0};" parent="1" vertex="1">
          <mxGeometry x="401" y="395" width="10" height="24" as="geometry" />
        </mxCell>
        <mxCell id="PfA9UrWwTEVDZZUZMj6F-211" value="" style="html=1;points=[[0,0,0,0,5],[0,1,0,0,-5],[1,0,0,0,5],[1,1,0,0,-5]];perimeter=orthogonalPerimeter;outlineConnect=0;targetShapes=umlLifeline;portConstraint=eastwest;newEdgeStyle={&quot;curved&quot;:0,&quot;rounded&quot;:0};" parent="1" vertex="1">
          <mxGeometry x="1082" y="389" width="10" height="30" as="geometry" />
        </mxCell>
        <mxCell id="PfA9UrWwTEVDZZUZMj6F-212" style="edgeStyle=orthogonalEdgeStyle;rounded=0;orthogonalLoop=1;jettySize=auto;html=1;curved=0;" parent="1" source="PfA9UrWwTEVDZZUZMj6F-176" target="PfA9UrWwTEVDZZUZMj6F-189" edge="1">
          <mxGeometry relative="1" as="geometry">
            <Array as="points">
              <mxPoint x="744" y="275" />
              <mxPoint x="744" y="275" />
            </Array>
          </mxGeometry>
        </mxCell>
        <mxCell id="PfA9UrWwTEVDZZUZMj6F-213" value="&lt;font style=&quot;font-size: 10px;&quot;&gt;Pide direccion a la pagina&lt;/font&gt;" style="edgeLabel;html=1;align=center;verticalAlign=middle;resizable=0;points=[];" parent="PfA9UrWwTEVDZZUZMj6F-212" vertex="1" connectable="0">
          <mxGeometry x="0.1236" relative="1" as="geometry">
            <mxPoint x="-11" y="-10" as="offset" />
          </mxGeometry>
        </mxCell>
        <mxCell id="PfA9UrWwTEVDZZUZMj6F-214" style="edgeStyle=orthogonalEdgeStyle;rounded=0;orthogonalLoop=1;jettySize=auto;html=1;curved=0;dashed=1;dashPattern=12 12;endArrow=open;endFill=0;" parent="1" source="PfA9UrWwTEVDZZUZMj6F-189" target="PfA9UrWwTEVDZZUZMj6F-176" edge="1">
          <mxGeometry relative="1" as="geometry">
            <Array as="points">
              <mxPoint x="814" y="295" />
              <mxPoint x="814" y="295" />
            </Array>
          </mxGeometry>
        </mxCell>
        <mxCell id="PfA9UrWwTEVDZZUZMj6F-215" value="&lt;font style=&quot;font-size: 10px;&quot;&gt;Entrega direccion de la pagina&lt;/font&gt;" style="edgeLabel;html=1;align=center;verticalAlign=middle;resizable=0;points=[];" parent="PfA9UrWwTEVDZZUZMj6F-214" vertex="1" connectable="0">
          <mxGeometry x="-0.108" y="1" relative="1" as="geometry">
            <mxPoint y="-10" as="offset" />
          </mxGeometry>
        </mxCell>
        <mxCell id="PfA9UrWwTEVDZZUZMj6F-216" style="edgeStyle=orthogonalEdgeStyle;rounded=0;orthogonalLoop=1;jettySize=auto;html=1;curved=0;" parent="1" source="PfA9UrWwTEVDZZUZMj6F-185" target="PfA9UrWwTEVDZZUZMj6F-210" edge="1">
          <mxGeometry relative="1" as="geometry">
            <Array as="points">
              <mxPoint x="230" y="399" />
              <mxPoint x="230" y="399" />
            </Array>
          </mxGeometry>
        </mxCell>
        <mxCell id="PfA9UrWwTEVDZZUZMj6F-217" value="Rellena el formulario" style="edgeLabel;html=1;align=center;verticalAlign=middle;resizable=0;points=[];" parent="PfA9UrWwTEVDZZUZMj6F-216" vertex="1" connectable="0">
          <mxGeometry x="0.2414" y="-1" relative="1" as="geometry">
            <mxPoint x="-46" y="-11" as="offset" />
          </mxGeometry>
        </mxCell>
        <mxCell id="PfA9UrWwTEVDZZUZMj6F-218" style="edgeStyle=orthogonalEdgeStyle;rounded=0;orthogonalLoop=1;jettySize=auto;html=1;curved=0;" parent="1" source="PfA9UrWwTEVDZZUZMj6F-188" target="PfA9UrWwTEVDZZUZMj6F-211" edge="1">
          <mxGeometry relative="1" as="geometry">
            <Array as="points">
              <mxPoint x="1020" y="399" />
              <mxPoint x="1020" y="399" />
            </Array>
          </mxGeometry>
        </mxCell>
        <mxCell id="PfA9UrWwTEVDZZUZMj6F-219" value="Envio de datos para ser procesados" style="edgeLabel;html=1;align=center;verticalAlign=middle;resizable=0;points=[];" parent="PfA9UrWwTEVDZZUZMj6F-218" vertex="1" connectable="0">
          <mxGeometry x="-0.3885" y="3" relative="1" as="geometry">
            <mxPoint x="35" y="-17" as="offset" />
          </mxGeometry>
        </mxCell>
        <mxCell id="PfA9UrWwTEVDZZUZMj6F-220" value="¿Se logro registrar el dispositivo?" style="shape=umlFrame;whiteSpace=wrap;html=1;pointerEvents=0;recursiveResize=0;container=1;collapsible=0;width=230;height=27;" parent="1" vertex="1">
          <mxGeometry x="50" y="472" width="1270" height="347" as="geometry" />
        </mxCell>
        <mxCell id="PfA9UrWwTEVDZZUZMj6F-221" value="No" style="text;html=1;" parent="PfA9UrWwTEVDZZUZMj6F-220" vertex="1">
          <mxGeometry width="100" height="20" relative="1" as="geometry">
            <mxPoint x="20" y="40" as="offset" />
          </mxGeometry>
        </mxCell>
        <mxCell id="PfA9UrWwTEVDZZUZMj6F-222" value="Si" style="line;strokeWidth=1;dashed=1;labelPosition=center;verticalLabelPosition=bottom;align=left;verticalAlign=top;spacingLeft=20;spacingTop=15;html=1;whiteSpace=wrap;" parent="PfA9UrWwTEVDZZUZMj6F-220" vertex="1">
          <mxGeometry y="167" width="1260" height="10" as="geometry" />
        </mxCell>
        <mxCell id="PfA9UrWwTEVDZZUZMj6F-223" style="edgeStyle=orthogonalEdgeStyle;rounded=0;orthogonalLoop=1;jettySize=auto;html=1;curved=0;dashed=1;dashPattern=12 12;endArrow=open;endFill=0;" parent="PfA9UrWwTEVDZZUZMj6F-220" source="PfA9UrWwTEVDZZUZMj6F-225" target="PfA9UrWwTEVDZZUZMj6F-231" edge="1">
          <mxGeometry relative="1" as="geometry">
            <Array as="points">
              <mxPoint x="880" y="268" />
              <mxPoint x="880" y="268" />
            </Array>
          </mxGeometry>
        </mxCell>
        <mxCell id="PfA9UrWwTEVDZZUZMj6F-224" value="Mostrar datos de dispositivo agregado" style="edgeLabel;html=1;align=center;verticalAlign=middle;resizable=0;points=[];" parent="PfA9UrWwTEVDZZUZMj6F-223" vertex="1" connectable="0">
          <mxGeometry x="-0.2568" y="-3" relative="1" as="geometry">
            <mxPoint x="-26" y="-17" as="offset" />
          </mxGeometry>
        </mxCell>
        <mxCell id="PfA9UrWwTEVDZZUZMj6F-225" value="" style="html=1;points=[[0,0,0,0,5],[0,1,0,0,-5],[1,0,0,0,5],[1,1,0,0,-5]];perimeter=orthogonalPerimeter;outlineConnect=0;targetShapes=umlLifeline;portConstraint=eastwest;newEdgeStyle={&quot;curved&quot;:0,&quot;rounded&quot;:0};" parent="PfA9UrWwTEVDZZUZMj6F-220" vertex="1">
          <mxGeometry x="1032" y="220" width="10" height="63" as="geometry" />
        </mxCell>
        <mxCell id="PfA9UrWwTEVDZZUZMj6F-226" value="&lt;font size=&quot;1&quot;&gt;Guardar datos de dispositivo a la base de datos&lt;/font&gt;" style="html=1;verticalAlign=bottom;startArrow=none;startFill=0;endArrow=oval;curved=0;rounded=0;endFill=1;targetPerimeterSpacing=2;endSize=14;" parent="PfA9UrWwTEVDZZUZMj6F-220" edge="1">
          <mxGeometry x="0.0667" y="16" width="80" relative="1" as="geometry">
            <mxPoint x="1104" y="224" as="sourcePoint" />
            <mxPoint x="1179" y="224" as="targetPoint" />
            <mxPoint as="offset" />
            <Array as="points">
              <mxPoint x="1139" y="224" />
            </Array>
          </mxGeometry>
        </mxCell>
        <mxCell id="PfA9UrWwTEVDZZUZMj6F-227" value="" style="endArrow=open;endFill=1;endSize=12;html=1;rounded=0;" parent="PfA9UrWwTEVDZZUZMj6F-220" edge="1" source="PfA9UrWwTEVDZZUZMj6F-225">
          <mxGeometry width="160" relative="1" as="geometry">
            <mxPoint x="1104" y="224" as="sourcePoint" />
            <mxPoint x="1174" y="224" as="targetPoint" />
          </mxGeometry>
        </mxCell>
        <mxCell id="PfA9UrWwTEVDZZUZMj6F-228" value="Mostrar datos de dispositivo nuevo" style="html=1;verticalAlign=bottom;startArrow=circle;startFill=1;endArrow=open;startSize=6;endSize=8;curved=0;rounded=0;dashed=1;dashPattern=12 12;" parent="PfA9UrWwTEVDZZUZMj6F-220" edge="1" target="PfA9UrWwTEVDZZUZMj6F-225">
          <mxGeometry x="-0.3878" y="-8" width="80" relative="1" as="geometry">
            <mxPoint x="1189" y="260" as="sourcePoint" />
            <mxPoint x="1104" y="260" as="targetPoint" />
            <mxPoint as="offset" />
          </mxGeometry>
        </mxCell>
        <mxCell id="PfA9UrWwTEVDZZUZMj6F-229" style="edgeStyle=orthogonalEdgeStyle;rounded=0;orthogonalLoop=1;jettySize=auto;html=1;curved=0;dashed=1;dashPattern=12 12;endArrow=open;endFill=0;" parent="PfA9UrWwTEVDZZUZMj6F-220" source="PfA9UrWwTEVDZZUZMj6F-231" target="PfA9UrWwTEVDZZUZMj6F-234" edge="1">
          <mxGeometry relative="1" as="geometry">
            <mxPoint x="511" y="278" as="targetPoint" />
            <Array as="points">
              <mxPoint x="436" y="272" />
              <mxPoint x="436" y="272" />
            </Array>
          </mxGeometry>
        </mxCell>
        <mxCell id="PfA9UrWwTEVDZZUZMj6F-230" value="Actualizar pagina" style="edgeLabel;html=1;align=center;verticalAlign=middle;resizable=0;points=[];" parent="PfA9UrWwTEVDZZUZMj6F-229" vertex="1" connectable="0">
          <mxGeometry x="0.3148" relative="1" as="geometry">
            <mxPoint x="12" y="-12" as="offset" />
          </mxGeometry>
        </mxCell>
        <mxCell id="PfA9UrWwTEVDZZUZMj6F-231" value="" style="html=1;points=[[0,0,0,0,5],[0,1,0,0,-5],[1,0,0,0,5],[1,1,0,0,-5]];perimeter=orthogonalPerimeter;outlineConnect=0;targetShapes=umlLifeline;portConstraint=eastwest;newEdgeStyle={&quot;curved&quot;:0,&quot;rounded&quot;:0};" parent="PfA9UrWwTEVDZZUZMj6F-220" vertex="1">
          <mxGeometry x="830" y="253" width="10" height="38" as="geometry" />
        </mxCell>
        <mxCell id="PfA9UrWwTEVDZZUZMj6F-232" style="edgeStyle=orthogonalEdgeStyle;rounded=0;orthogonalLoop=1;jettySize=auto;html=1;curved=0;dashed=1;dashPattern=12 12;endArrow=open;endFill=0;" parent="PfA9UrWwTEVDZZUZMj6F-220" source="PfA9UrWwTEVDZZUZMj6F-234" target="PfA9UrWwTEVDZZUZMj6F-235" edge="1">
          <mxGeometry relative="1" as="geometry" />
        </mxCell>
        <mxCell id="PfA9UrWwTEVDZZUZMj6F-233" value="Notificar que el dispositivo ha sido agregado" style="edgeLabel;html=1;align=center;verticalAlign=middle;resizable=0;points=[];" parent="PfA9UrWwTEVDZZUZMj6F-232" vertex="1" connectable="0">
          <mxGeometry x="0.2861" y="-2" relative="1" as="geometry">
            <mxPoint x="29" y="-22" as="offset" />
          </mxGeometry>
        </mxCell>
        <mxCell id="PfA9UrWwTEVDZZUZMj6F-234" value="" style="html=1;points=[[0,0,0,0,5],[0,1,0,0,-5],[1,0,0,0,5],[1,1,0,0,-5]];perimeter=orthogonalPerimeter;outlineConnect=0;targetShapes=umlLifeline;portConstraint=eastwest;newEdgeStyle={&quot;curved&quot;:0,&quot;rounded&quot;:0};" parent="PfA9UrWwTEVDZZUZMj6F-220" vertex="1">
          <mxGeometry x="351" y="268" width="10" height="33" as="geometry" />
        </mxCell>
        <mxCell id="PfA9UrWwTEVDZZUZMj6F-235" value="" style="html=1;points=[[0,0,0,0,5],[0,1,0,0,-5],[1,0,0,0,5],[1,1,0,0,-5]];perimeter=orthogonalPerimeter;outlineConnect=0;targetShapes=umlLifeline;portConstraint=eastwest;newEdgeStyle={&quot;curved&quot;:0,&quot;rounded&quot;:0};" parent="PfA9UrWwTEVDZZUZMj6F-220" vertex="1">
          <mxGeometry x="67" y="268" width="10" height="33" as="geometry" />
        </mxCell>
        <mxCell id="PfA9UrWwTEVDZZUZMj6F-236" style="edgeStyle=orthogonalEdgeStyle;rounded=0;orthogonalLoop=1;jettySize=auto;html=1;curved=0;dashed=1;dashPattern=12 12;endArrow=open;endFill=0;" parent="PfA9UrWwTEVDZZUZMj6F-220" source="PfA9UrWwTEVDZZUZMj6F-238" target="PfA9UrWwTEVDZZUZMj6F-241" edge="1">
          <mxGeometry relative="1" as="geometry">
            <Array as="points">
              <mxPoint x="921" y="61" />
              <mxPoint x="921" y="67" />
            </Array>
          </mxGeometry>
        </mxCell>
        <mxCell id="PfA9UrWwTEVDZZUZMj6F-237" value="Enviar notificacion de error" style="edgeLabel;html=1;align=center;verticalAlign=middle;resizable=0;points=[];" parent="PfA9UrWwTEVDZZUZMj6F-236" vertex="1" connectable="0">
          <mxGeometry x="-0.3273" y="-3" relative="1" as="geometry">
            <mxPoint x="-18" y="-12" as="offset" />
          </mxGeometry>
        </mxCell>
        <mxCell id="PfA9UrWwTEVDZZUZMj6F-238" value="" style="html=1;points=[[0,0,0,0,5],[0,1,0,0,-5],[1,0,0,0,5],[1,1,0,0,-5]];perimeter=orthogonalPerimeter;outlineConnect=0;targetShapes=umlLifeline;portConstraint=eastwest;newEdgeStyle={&quot;curved&quot;:0,&quot;rounded&quot;:0};" parent="PfA9UrWwTEVDZZUZMj6F-220" vertex="1">
          <mxGeometry x="1032" y="46" width="10" height="30" as="geometry" />
        </mxCell>
        <mxCell id="PfA9UrWwTEVDZZUZMj6F-239" style="edgeStyle=orthogonalEdgeStyle;rounded=0;orthogonalLoop=1;jettySize=auto;html=1;curved=0;dashed=1;dashPattern=12 12;endArrow=open;endFill=0;" parent="PfA9UrWwTEVDZZUZMj6F-220" source="PfA9UrWwTEVDZZUZMj6F-241" target="PfA9UrWwTEVDZZUZMj6F-244" edge="1">
          <mxGeometry relative="1" as="geometry" />
        </mxCell>
        <mxCell id="PfA9UrWwTEVDZZUZMj6F-240" value="Notificar que no se registro dispositivo" style="edgeLabel;html=1;align=center;verticalAlign=middle;resizable=0;points=[];" parent="PfA9UrWwTEVDZZUZMj6F-239" vertex="1" connectable="0">
          <mxGeometry x="0.3266" y="-1" relative="1" as="geometry">
            <mxPoint x="17" y="-15" as="offset" />
          </mxGeometry>
        </mxCell>
        <mxCell id="PfA9UrWwTEVDZZUZMj6F-241" value="" style="html=1;points=[[0,0,0,0,5],[0,1,0,0,-5],[1,0,0,0,5],[1,1,0,0,-5]];perimeter=orthogonalPerimeter;outlineConnect=0;targetShapes=umlLifeline;portConstraint=eastwest;newEdgeStyle={&quot;curved&quot;:0,&quot;rounded&quot;:0};" parent="PfA9UrWwTEVDZZUZMj6F-220" vertex="1">
          <mxGeometry x="830" y="57" width="10" height="37" as="geometry" />
        </mxCell>
        <mxCell id="PfA9UrWwTEVDZZUZMj6F-242" style="edgeStyle=orthogonalEdgeStyle;rounded=0;orthogonalLoop=1;jettySize=auto;html=1;curved=0;dashed=1;dashPattern=12 12;endArrow=open;endFill=0;" parent="PfA9UrWwTEVDZZUZMj6F-220" source="PfA9UrWwTEVDZZUZMj6F-244" target="PfA9UrWwTEVDZZUZMj6F-245" edge="1">
          <mxGeometry relative="1" as="geometry" />
        </mxCell>
        <mxCell id="PfA9UrWwTEVDZZUZMj6F-243" value="Notificar que intente denuevo registrar el dispositivo" style="edgeLabel;html=1;align=center;verticalAlign=middle;resizable=0;points=[];" parent="PfA9UrWwTEVDZZUZMj6F-242" vertex="1" connectable="0">
          <mxGeometry x="-0.2937" relative="1" as="geometry">
            <mxPoint x="-36" y="-20" as="offset" />
          </mxGeometry>
        </mxCell>
        <mxCell id="PfA9UrWwTEVDZZUZMj6F-244" value="" style="html=1;points=[[0,0,0,0,5],[0,1,0,0,-5],[1,0,0,0,5],[1,1,0,0,-5]];perimeter=orthogonalPerimeter;outlineConnect=0;targetShapes=umlLifeline;portConstraint=eastwest;newEdgeStyle={&quot;curved&quot;:0,&quot;rounded&quot;:0};" parent="PfA9UrWwTEVDZZUZMj6F-220" vertex="1">
          <mxGeometry x="351" y="60" width="10" height="34" as="geometry" />
        </mxCell>
        <mxCell id="PfA9UrWwTEVDZZUZMj6F-245" value="" style="html=1;points=[[0,0,0,0,5],[0,1,0,0,-5],[1,0,0,0,5],[1,1,0,0,-5]];perimeter=orthogonalPerimeter;outlineConnect=0;targetShapes=umlLifeline;portConstraint=eastwest;newEdgeStyle={&quot;curved&quot;:0,&quot;rounded&quot;:0};" parent="PfA9UrWwTEVDZZUZMj6F-220" vertex="1">
          <mxGeometry x="67" y="64" width="10" height="30" as="geometry" />
        </mxCell>
      </root>
    </mxGraphModel>
  </diagram>
</mxfile>
